<svg xmlns="http://www.w3.org/2000/svg" xmlns:xlink="http://www.w3.org/1999/xlink" width="64" height="64" version="1.1" viewBox="0 0 48 48"><g id="surface21183"><path style="stroke:none;fill-rule:nonzero;fill:#4284f7;fill-opacity:1" d="M 0 24 C 0 10.746094 10.746094 0 24 0 C 37.253906 0 48 10.746094 48 24 C 48 37.253906 37.253906 48 24 48 C 10.746094 48 0 37.253906 0 24 Z M 24 47.039062 C 36.726562 47.039062 47.039062 36.726562 47.039062 24 C 47.039062 11.273438 36.726562 0.960938 24 0.960938 C 11.273438 0.960938 0.960938 11.273438 0.960938 24 C 0.960938 36.726562 11.273438 47.039062 24 47.039062 Z M 24 47.039062"/><path style="stroke:none;fill-rule:nonzero;fill:#cfd8dc;fill-opacity:1" d="M 30.179688 12.671875 L 17.820312 12.671875 L 10.609375 24 L 17.820312 35.328125 L 30.179688 35.328125 L 37.390625 24 Z M 24 29.148438 C 21.113281 29.148438 18.847656 26.882812 18.847656 24 C 18.847656 21.117188 21.113281 18.851562 24 18.851562 C 26.882812 18.851562 29.148438 21.117188 29.148438 24 C 29.148438 26.882812 26.882812 29.148438 24 29.148438 Z M 24 29.148438"/><path style="stroke:none;fill-rule:nonzero;fill:#2196f3;fill-opacity:1" d="M 35.121094 6.695312 C 34.609375 5.976562 33.785156 5.460938 32.855469 5.460938 L 15.140625 5.460938 C 14.214844 5.460938 13.390625 5.976562 12.875 6.695312 L 6.902344 16.480469 L 11.640625 24 L 18.128906 13.699219 L 39.34375 13.699219 Z M 15.757812 10.609375 C 15.140625 10.609375 14.730469 10.199219 14.730469 9.578125 C 14.730469 8.960938 15.140625 8.550781 15.757812 8.550781 C 16.375 8.550781 16.789062 8.960938 16.789062 9.578125 C 16.789062 10.199219 16.375 10.609375 15.757812 10.609375 Z M 32.238281 10.609375 C 31.621094 10.609375 31.207031 10.199219 31.207031 9.578125 C 31.207031 8.960938 31.621094 8.550781 32.238281 8.550781 C 32.855469 8.550781 33.269531 8.960938 33.269531 9.578125 C 33.269531 10.199219 32.855469 10.609375 32.238281 10.609375 Z M 32.238281 10.609375"/><path style="stroke:none;fill-rule:nonzero;fill:#ffc107;fill-opacity:1" d="M 18.128906 34.300781 L 6.902344 16.585938 L 3.191406 22.660156 C 2.675781 23.484375 2.675781 24.617188 3.191406 25.441406 L 12.875 41.304688 C 13.390625 42.128906 14.214844 42.539062 15.140625 42.539062 L 24.515625 42.539062 L 29.765625 34.300781 Z M 7.519531 25.03125 C 6.902344 25.03125 6.488281 24.617188 6.488281 24 C 6.488281 23.382812 6.902344 22.96875 7.519531 22.96875 C 8.136719 22.96875 8.546875 23.382812 8.546875 24 C 8.546875 24.617188 8.136719 25.03125 7.519531 25.03125 Z M 15.757812 39.449219 C 15.140625 39.449219 14.730469 39.039062 14.730469 38.421875 C 14.730469 37.800781 15.140625 37.390625 15.757812 37.390625 C 16.375 37.390625 16.789062 37.800781 16.789062 38.421875 C 16.789062 39.039062 16.375 39.449219 15.757812 39.449219 Z M 15.757812 39.449219"/><path style="stroke:none;fill-rule:nonzero;fill:#1976d2;fill-opacity:1" d="M 6.902344 16.585938 L 11.640625 24 L 14.109375 20.1875 L 8.035156 14.730469 Z M 6.902344 16.585938"/><path style="stroke:none;fill-rule:nonzero;fill:#f9a825;fill-opacity:1" d="M 24.617188 42.539062 L 29.871094 34.300781 L 24.925781 34.300781 L 22.558594 42.539062 Z M 24.617188 42.539062"/><path style="stroke:none;fill-rule:nonzero;fill:#dd2c00;fill-opacity:1" d="M 44.804688 22.660156 L 39.34375 13.699219 L 29.871094 13.699219 L 36.359375 24 L 24.617188 42.539062 L 32.855469 42.539062 C 33.785156 42.539062 34.609375 42.023438 35.121094 41.304688 L 44.90625 25.441406 C 45.421875 24.515625 45.421875 23.484375 44.804688 22.660156 Z M 32.238281 39.449219 C 31.621094 39.449219 31.207031 39.039062 31.207031 38.421875 C 31.207031 37.800781 31.621094 37.390625 32.238281 37.390625 C 32.855469 37.390625 33.269531 37.800781 33.269531 38.421875 C 33.269531 39.039062 32.855469 39.449219 32.238281 39.449219 Z M 40.480469 25.03125 C 39.859375 25.03125 39.449219 24.617188 39.449219 24 C 39.449219 23.382812 39.859375 22.96875 40.480469 22.96875 C 41.097656 22.96875 41.507812 23.382812 41.507812 24 C 41.507812 24.617188 41.097656 25.03125 40.480469 25.03125 Z M 40.480469 25.03125"/><path style="stroke:none;fill-rule:nonzero;fill:#bf360c;fill-opacity:1" d="M 39.34375 13.699219 L 29.871094 13.699219 L 32.445312 17.71875 L 40.582031 15.761719 Z M 39.34375 13.699219"/></g></svg>