<svg xmlns="http://www.w3.org/2000/svg" xmlns:xlink="http://www.w3.org/1999/xlink" width="64" height="64" version="1.1" viewBox="0 0 48 48"><g id="surface188278"><path style="stroke:none;fill-rule:nonzero;fill:#4284f7;fill-opacity:1" d="M 0 24 C 0 10.746094 10.746094 0 24 0 C 37.253906 0 48 10.746094 48 24 C 48 37.253906 37.253906 48 24 48 C 10.746094 48 0 37.253906 0 24 Z M 24 47.039062 C 36.726562 47.039062 47.039062 36.726562 47.039062 24 C 47.039062 11.273438 36.726562 0.960938 24 0.960938 C 11.273438 0.960938 0.960938 11.273438 0.960938 24 C 0.960938 36.726562 11.273438 47.039062 24 47.039062 Z M 24 47.039062"/><path style="stroke:none;fill-rule:nonzero;fill:#b0bec5;fill-opacity:1" d="M 15.953125 37.78125 L 11.925781 37.78125 C 11.484375 37.78125 11.121094 37.417969 11.121094 36.976562 L 11.121094 33.753906 C 11.121094 33.3125 11.484375 32.949219 11.925781 32.949219 L 15.953125 32.949219 C 16.394531 32.949219 16.757812 33.3125 16.757812 33.753906 L 16.757812 36.976562 C 16.757812 37.417969 16.394531 37.78125 15.953125 37.78125 Z M 15.953125 37.78125"/><path style="stroke:none;fill-rule:nonzero;fill:#43a047;fill-opacity:1" d="M 39.292969 36.171875 L 8.707031 36.171875 C 6.929688 36.171875 5.488281 34.730469 5.488281 32.949219 L 5.488281 14.4375 C 5.488281 12.660156 6.929688 11.21875 8.707031 11.21875 L 39.292969 11.21875 C 41.070312 11.21875 42.511719 12.660156 42.511719 14.4375 L 42.511719 32.949219 C 42.511719 34.730469 41.070312 36.171875 39.292969 36.171875 Z M 39.292969 36.171875"/><path style="stroke:none;fill-rule:nonzero;fill:#ffc107;fill-opacity:1" d="M 38.890625 12.828125 C 37.777344 12.828125 36.878906 13.730469 36.878906 14.84375 C 36.878906 15.953125 37.777344 16.855469 38.890625 16.855469 C 40 16.855469 40.902344 15.953125 40.902344 14.84375 C 40.902344 13.730469 40 12.828125 38.890625 12.828125 Z M 38.890625 30.535156 C 37.777344 30.535156 36.878906 31.4375 36.878906 32.546875 C 36.878906 33.660156 37.777344 34.5625 38.890625 34.5625 C 40 34.5625 40.902344 33.660156 40.902344 32.546875 C 40.902344 31.4375 40 30.535156 38.890625 30.535156 Z M 9.109375 30.535156 C 8 30.535156 7.097656 31.4375 7.097656 32.546875 C 7.097656 33.660156 8 34.5625 9.109375 34.5625 C 10.222656 34.5625 11.121094 33.660156 11.121094 32.546875 C 11.121094 31.4375 10.222656 30.535156 9.109375 30.535156 Z M 9.109375 12.828125 C 8 12.828125 7.097656 13.730469 7.097656 14.84375 C 7.097656 15.953125 8 16.855469 9.109375 16.855469 C 10.222656 16.855469 11.121094 15.953125 11.121094 14.84375 C 11.121094 13.730469 10.222656 12.828125 9.109375 12.828125 Z M 21.183594 13.632812 C 20.515625 13.632812 19.976562 14.175781 19.976562 14.84375 C 19.976562 15.507812 20.515625 16.050781 21.183594 16.050781 C 21.851562 16.050781 22.390625 15.507812 22.390625 14.84375 C 22.390625 14.175781 21.851562 13.632812 21.183594 13.632812 Z M 15.550781 13.632812 C 14.882812 13.632812 14.34375 14.175781 14.34375 14.84375 C 14.34375 15.507812 14.882812 16.050781 15.550781 16.050781 C 16.214844 16.050781 16.757812 15.507812 16.757812 14.84375 C 16.757812 14.175781 16.214844 13.632812 15.550781 13.632812 Z M 26.816406 13.632812 C 26.148438 13.632812 25.609375 14.175781 25.609375 14.84375 C 25.609375 15.507812 26.148438 16.050781 26.816406 16.050781 C 27.484375 16.050781 28.023438 15.507812 28.023438 14.84375 C 28.023438 14.175781 27.484375 13.632812 26.816406 13.632812 Z M 32.449219 13.632812 C 31.785156 13.632812 31.242188 14.175781 31.242188 14.84375 C 31.242188 15.507812 31.785156 16.050781 32.449219 16.050781 C 33.117188 16.050781 33.65625 15.507812 33.65625 14.84375 C 33.65625 14.175781 33.117188 13.632812 32.449219 13.632812 Z M 29.632812 24.097656 C 29.191406 24.097656 28.828125 23.738281 28.828125 23.292969 C 28.828125 22.847656 29.191406 22.488281 29.632812 22.488281 L 31.242188 22.488281 C 31.6875 22.488281 32.046875 22.847656 32.046875 23.292969 C 32.046875 23.738281 31.6875 24.097656 31.242188 24.097656 Z M 16.757812 24.097656 C 16.3125 24.097656 15.953125 23.738281 15.953125 23.292969 C 15.953125 22.847656 16.3125 22.488281 16.757812 22.488281 L 18.367188 22.488281 C 18.808594 22.488281 19.171875 22.847656 19.171875 23.292969 C 19.171875 23.738281 18.808594 24.097656 18.367188 24.097656 Z M 29.632812 28.121094 C 29.191406 28.121094 28.828125 27.761719 28.828125 27.316406 C 28.828125 26.871094 29.191406 26.511719 29.632812 26.511719 L 31.242188 26.511719 C 31.6875 26.511719 32.046875 26.871094 32.046875 27.316406 C 32.046875 27.761719 31.6875 28.121094 31.242188 28.121094 Z M 26.414062 29.730469 C 26.414062 29.289062 26.773438 28.925781 27.21875 28.925781 C 27.664062 28.925781 28.023438 29.289062 28.023438 29.730469 L 28.023438 31.339844 C 28.023438 31.785156 27.664062 32.144531 27.21875 32.144531 C 26.773438 32.144531 26.414062 31.785156 26.414062 31.339844 Z M 19.976562 29.730469 C 19.976562 29.289062 20.335938 28.925781 20.78125 28.925781 C 21.226562 28.925781 21.585938 29.289062 21.585938 29.730469 L 21.585938 31.339844 C 21.585938 31.785156 21.226562 32.144531 20.78125 32.144531 C 20.335938 32.144531 19.976562 31.785156 19.976562 31.339844 Z M 26.414062 19.269531 C 26.414062 18.824219 26.773438 18.464844 27.21875 18.464844 C 27.664062 18.464844 28.023438 18.824219 28.023438 19.269531 L 28.023438 20.878906 C 28.023438 21.324219 27.664062 21.683594 27.21875 21.683594 C 26.773438 21.683594 26.414062 21.324219 26.414062 20.878906 Z M 19.976562 19.269531 C 19.976562 18.824219 20.335938 18.464844 20.78125 18.464844 C 21.226562 18.464844 21.585938 18.824219 21.585938 19.269531 L 21.585938 20.878906 C 21.585938 21.324219 21.226562 21.683594 20.78125 21.683594 C 20.335938 21.683594 19.976562 21.324219 19.976562 20.878906 Z M 16.757812 28.121094 C 16.3125 28.121094 15.953125 27.761719 15.953125 27.316406 C 15.953125 26.871094 16.3125 26.511719 16.757812 26.511719 L 18.367188 26.511719 C 18.808594 26.511719 19.171875 26.871094 19.171875 27.316406 C 19.171875 27.761719 18.808594 28.121094 18.367188 28.121094 Z M 16.757812 28.121094"/><path style="stroke:none;fill-rule:nonzero;fill:#b0bec5;fill-opacity:1" d="M 40.097656 23.292969 L 35.269531 23.292969 C 34.824219 23.292969 34.464844 22.929688 34.464844 22.488281 L 34.464844 20.878906 C 34.464844 20.433594 34.824219 20.074219 35.269531 20.074219 L 40.097656 20.074219 C 40.539062 20.074219 40.902344 20.433594 40.902344 20.878906 L 40.902344 22.488281 C 40.902344 22.929688 40.539062 23.292969 40.097656 23.292969 Z M 12.730469 27.316406 L 7.902344 27.316406 C 7.460938 27.316406 7.097656 26.953125 7.097656 26.511719 L 7.097656 20.878906 C 7.097656 20.433594 7.460938 20.074219 7.902344 20.074219 L 12.730469 20.074219 C 13.175781 20.074219 13.535156 20.433594 13.535156 20.878906 L 13.535156 26.511719 C 13.535156 26.953125 13.175781 27.316406 12.730469 27.316406 Z M 40.097656 27.316406 L 35.269531 27.316406 C 34.824219 27.316406 34.464844 26.953125 34.464844 26.511719 L 34.464844 25.707031 C 34.464844 25.265625 34.824219 24.902344 35.269531 24.902344 L 40.097656 24.902344 C 40.539062 24.902344 40.902344 25.265625 40.902344 25.707031 L 40.902344 26.511719 C 40.902344 26.953125 40.539062 27.316406 40.097656 27.316406 Z M 40.097656 27.316406"/><path style="stroke:none;fill-rule:nonzero;fill:#37474f;fill-opacity:1" d="M 38.890625 14.035156 C 38.445312 14.035156 38.085938 14.398438 38.085938 14.84375 C 38.085938 15.285156 38.445312 15.648438 38.890625 15.648438 C 39.335938 15.648438 39.695312 15.285156 39.695312 14.84375 C 39.695312 14.398438 39.335938 14.035156 38.890625 14.035156 Z M 38.890625 31.742188 C 38.445312 31.742188 38.085938 32.105469 38.085938 32.546875 C 38.085938 32.992188 38.445312 33.351562 38.890625 33.351562 C 39.335938 33.351562 39.695312 32.992188 39.695312 32.546875 C 39.695312 32.105469 39.335938 31.742188 38.890625 31.742188 Z M 9.109375 31.742188 C 8.664062 31.742188 8.304688 32.105469 8.304688 32.546875 C 8.304688 32.992188 8.664062 33.351562 9.109375 33.351562 C 9.554688 33.351562 9.914062 32.992188 9.914062 32.546875 C 9.914062 32.105469 9.554688 31.742188 9.109375 31.742188 Z M 9.109375 14.035156 C 8.664062 14.035156 8.304688 14.398438 8.304688 14.84375 C 8.304688 15.285156 8.664062 15.648438 9.109375 15.648438 C 9.554688 15.648438 9.914062 15.285156 9.914062 14.84375 C 9.914062 14.398438 9.554688 14.035156 9.109375 14.035156 Z M 29.585938 30.535156 L 18.367188 30.535156 C 17.921875 30.535156 17.5625 30.175781 17.5625 29.730469 L 17.5625 22.488281 L 19.976562 20.074219 L 29.585938 20.074219 C 30.058594 20.074219 30.4375 20.433594 30.4375 20.878906 L 30.4375 29.730469 C 30.4375 30.175781 30.058594 30.535156 29.585938 30.535156 Z M 29.585938 30.535156"/></g></svg>