<svg xmlns="http://www.w3.org/2000/svg" xmlns:xlink="http://www.w3.org/1999/xlink" width="64" height="64" version="1.1" viewBox="0 0 48 48"><g id="surface24286"><path style="stroke:none;fill-rule:nonzero;fill:#4284f7;fill-opacity:1" d="M 0 24 C 0 10.746094 10.746094 0 24 0 C 37.253906 0 48 10.746094 48 24 C 48 37.253906 37.253906 48 24 48 C 10.746094 48 0 37.253906 0 24 Z M 24 47.039062 C 36.726562 47.039062 47.039062 36.726562 47.039062 24 C 47.039062 11.273438 36.726562 0.960938 24 0.960938 C 11.273438 0.960938 0.960938 11.273438 0.960938 24 C 0.960938 36.726562 11.273438 47.039062 24 47.039062 Z M 24 47.039062"/><path style="stroke:none;fill-rule:nonzero;fill:#c6dff1;fill-opacity:1" d="M 31.148438 38.300781 L 16.371094 38.300781 C 13.5 38.300781 11.175781 35.976562 11.175781 33.105469 L 11.175781 20.324219 C 11.175781 17.457031 13.5 15.132812 16.371094 15.132812 L 31.148438 15.132812 C 34.019531 15.132812 36.34375 17.457031 36.34375 20.324219 L 36.34375 33.105469 C 36.34375 35.976562 34.019531 38.300781 31.148438 38.300781 Z M 31.148438 38.300781"/><path style="stroke:none;fill-rule:nonzero;fill:#fff;fill-opacity:1" d="M 16.570312 30.109375 L 30.949219 30.109375 L 30.949219 32.507812 C 30.949219 33.832031 29.878906 34.90625 28.554688 34.90625 L 18.964844 34.90625 C 17.640625 34.90625 16.570312 33.832031 16.570312 32.507812 Z M 16.570312 30.109375"/><path style="stroke:none;fill-rule:nonzero;fill:#8e9cb3;fill-opacity:1" d="M 29.351562 15.132812 L 18.167969 15.132812 L 18.167969 14.53125 C 18.167969 13.648438 18.882812 12.933594 19.765625 12.933594 L 27.753906 12.933594 C 28.636719 12.933594 29.351562 13.648438 29.351562 14.53125 Z M 29.351562 15.132812"/><path style="stroke:none;fill-rule:nonzero;fill:#8e9cb3;fill-opacity:1" d="M 36.34375 21.523438 L 36.34375 28.3125 L 39.398438 27.722656 C 39.949219 27.601562 40.339844 27.117188 40.339844 26.554688 L 40.339844 23.28125 C 40.339844 22.722656 39.949219 22.234375 39.398438 22.113281 Z M 36.34375 21.523438"/><path style="stroke:none;fill-rule:nonzero;fill:#8e9cb3;fill-opacity:1" d="M 11.175781 21.523438 L 11.175781 28.3125 L 8.121094 27.722656 C 7.570312 27.601562 7.183594 27.117188 7.183594 26.554688 L 7.183594 23.28125 C 7.183594 22.722656 7.570312 22.234375 8.121094 22.113281 Z M 11.175781 21.523438"/><path style="stroke:none;fill-rule:nonzero;fill:#f05b6c;fill-opacity:1" d="M 27.355469 12.933594 L 20.164062 12.933594 L 20.835938 9.183594 C 20.910156 8.808594 21.238281 8.539062 21.617188 8.539062 L 25.902344 8.539062 C 26.28125 8.539062 26.609375 8.808594 26.683594 9.183594 Z M 27.355469 12.933594"/><path style="stroke:none;fill-rule:nonzero;fill:#f27c7c;fill-opacity:1" d="M 40.539062 12.335938 C 40.539062 13.328125 39.734375 14.132812 38.742188 14.132812 C 37.746094 14.132812 36.941406 13.328125 36.941406 12.335938 C 36.941406 11.34375 37.746094 10.539062 38.742188 10.539062 C 39.734375 10.539062 40.539062 11.34375 40.539062 12.335938 Z M 40.539062 12.335938"/><path style="stroke:none;fill-rule:nonzero;fill:#f27c7c;fill-opacity:1" d="M 10.578125 12.335938 C 10.578125 13.328125 9.773438 14.132812 8.78125 14.132812 C 7.785156 14.132812 6.980469 13.328125 6.980469 12.335938 C 6.980469 11.34375 7.785156 10.539062 8.78125 10.539062 C 9.773438 10.539062 10.578125 11.34375 10.578125 12.335938 Z M 10.578125 12.335938"/><path style="stroke:none;fill-rule:nonzero;fill:#a2b4cc;fill-opacity:1" d="M 21.363281 23.121094 C 21.363281 24.996094 19.84375 26.515625 17.96875 26.515625 C 16.09375 26.515625 14.570312 24.996094 14.570312 23.121094 C 14.570312 21.246094 16.09375 19.726562 17.96875 19.726562 C 19.84375 19.726562 21.363281 21.246094 21.363281 23.121094 Z M 21.363281 23.121094"/><path style="stroke:none;fill-rule:nonzero;fill:#fef6aa;fill-opacity:1" d="M 19.367188 23.121094 C 19.367188 23.894531 18.738281 24.519531 17.96875 24.519531 C 17.195312 24.519531 16.570312 23.894531 16.570312 23.121094 C 16.570312 22.347656 17.195312 21.722656 17.96875 21.722656 C 18.738281 21.722656 19.367188 22.347656 19.367188 23.121094 Z M 19.367188 23.121094"/><path style="stroke:none;fill-rule:nonzero;fill:#a2b4cc;fill-opacity:1" d="M 32.949219 23.121094 C 32.949219 24.996094 31.425781 26.515625 29.550781 26.515625 C 27.675781 26.515625 26.15625 24.996094 26.15625 23.121094 C 26.15625 21.246094 27.675781 19.726562 29.550781 19.726562 C 31.425781 19.726562 32.949219 21.246094 32.949219 23.121094 Z M 32.949219 23.121094"/><path style="stroke:none;fill-rule:nonzero;fill:#fef6aa;fill-opacity:1" d="M 30.949219 23.121094 C 30.949219 23.894531 30.324219 24.519531 29.550781 24.519531 C 28.78125 24.519531 28.152344 23.894531 28.152344 23.121094 C 28.152344 22.347656 28.78125 21.722656 29.550781 21.722656 C 30.324219 21.722656 30.949219 22.347656 30.949219 23.121094 Z M 30.949219 23.121094"/><path style="stroke:none;fill-rule:nonzero;fill:#1f212b;fill-opacity:1" d="M 31.148438 38.699219 L 16.371094 38.699219 C 13.285156 38.699219 10.777344 36.191406 10.777344 33.105469 L 10.777344 20.324219 C 10.777344 17.242188 13.285156 14.730469 16.371094 14.730469 L 31.148438 14.730469 C 34.234375 14.730469 36.742188 17.242188 36.742188 20.324219 L 36.742188 33.105469 C 36.742188 36.191406 34.234375 38.699219 31.148438 38.699219 Z M 16.371094 15.53125 C 13.726562 15.53125 11.574219 17.679688 11.574219 20.324219 L 11.574219 33.105469 C 11.574219 35.75 13.726562 37.902344 16.371094 37.902344 L 31.148438 37.902344 C 33.792969 37.902344 35.945312 35.75 35.945312 33.105469 L 35.945312 20.324219 C 35.945312 17.679688 33.792969 15.53125 31.148438 15.53125 Z M 16.371094 15.53125"/><path style="stroke:none;fill-rule:nonzero;fill:#1f212b;fill-opacity:1" d="M 17.96875 26.714844 C 15.984375 26.714844 14.371094 25.101562 14.371094 23.121094 C 14.371094 21.136719 15.984375 19.523438 17.96875 19.523438 C 19.949219 19.523438 21.5625 21.136719 21.5625 23.121094 C 21.5625 25.101562 19.949219 26.714844 17.96875 26.714844 Z M 17.96875 19.925781 C 16.207031 19.925781 14.773438 21.359375 14.773438 23.121094 C 14.773438 24.882812 16.207031 26.316406 17.96875 26.316406 C 19.730469 26.316406 21.164062 24.882812 21.164062 23.121094 C 21.164062 21.359375 19.730469 19.925781 17.96875 19.925781 Z M 17.96875 19.925781"/><path style="stroke:none;fill-rule:nonzero;fill:#1f212b;fill-opacity:1" d="M 17.96875 24.71875 C 17.085938 24.71875 16.371094 24 16.371094 23.121094 C 16.371094 22.238281 17.085938 21.523438 17.96875 21.523438 C 18.847656 21.523438 19.566406 22.238281 19.566406 23.121094 C 19.566406 24 18.847656 24.71875 17.96875 24.71875 Z M 17.96875 21.921875 C 17.308594 21.921875 16.769531 22.460938 16.769531 23.121094 C 16.769531 23.78125 17.308594 24.320312 17.96875 24.320312 C 18.628906 24.320312 19.167969 23.78125 19.167969 23.121094 C 19.167969 22.460938 18.628906 21.921875 17.96875 21.921875 Z M 17.96875 21.921875"/><path style="stroke:none;fill-rule:nonzero;fill:#1f212b;fill-opacity:1" d="M 29.550781 26.714844 C 27.570312 26.714844 25.957031 25.101562 25.957031 23.121094 C 25.957031 21.136719 27.570312 19.523438 29.550781 19.523438 C 31.535156 19.523438 33.148438 21.136719 33.148438 23.121094 C 33.148438 25.101562 31.535156 26.714844 29.550781 26.714844 Z M 29.550781 19.925781 C 27.789062 19.925781 26.355469 21.359375 26.355469 23.121094 C 26.355469 24.882812 27.789062 26.316406 29.550781 26.316406 C 31.3125 26.316406 32.75 24.882812 32.75 23.121094 C 32.75 21.359375 31.3125 19.925781 29.550781 19.925781 Z M 29.550781 19.925781"/><path style="stroke:none;fill-rule:nonzero;fill:#1f212b;fill-opacity:1" d="M 29.550781 24.71875 C 28.671875 24.71875 27.953125 24 27.953125 23.121094 C 27.953125 22.238281 28.671875 21.523438 29.550781 21.523438 C 30.433594 21.523438 31.148438 22.238281 31.148438 23.121094 C 31.148438 24 30.433594 24.71875 29.550781 24.71875 Z M 29.550781 21.921875 C 28.890625 21.921875 28.355469 22.460938 28.355469 23.121094 C 28.355469 23.78125 28.890625 24.320312 29.550781 24.320312 C 30.214844 24.320312 30.75 23.78125 30.75 23.121094 C 30.75 22.460938 30.214844 21.921875 29.550781 21.921875 Z M 29.550781 21.921875"/><path style="stroke:none;fill-rule:nonzero;fill:#1f212b;fill-opacity:1" d="M 29.351562 15.332031 L 18.167969 15.332031 C 18.058594 15.332031 17.96875 15.242188 17.96875 15.132812 L 17.96875 14.53125 C 17.96875 13.539062 18.773438 12.734375 19.765625 12.734375 L 27.753906 12.734375 C 28.746094 12.734375 29.550781 13.539062 29.550781 14.53125 L 29.550781 15.132812 C 29.550781 15.242188 29.460938 15.332031 29.351562 15.332031 Z M 18.367188 14.929688 L 29.152344 14.929688 L 29.152344 14.53125 C 29.152344 13.761719 28.527344 13.132812 27.753906 13.132812 L 19.765625 13.132812 C 18.996094 13.132812 18.367188 13.761719 18.367188 14.53125 Z M 18.367188 14.929688"/><path style="stroke:none;fill-rule:nonzero;fill:#1f212b;fill-opacity:1" d="M 27.355469 13.132812 L 20.164062 13.132812 C 20.105469 13.132812 20.050781 13.109375 20.011719 13.0625 C 19.972656 13.015625 19.957031 12.957031 19.96875 12.898438 L 20.640625 9.148438 C 20.730469 8.675781 21.144531 8.339844 21.617188 8.339844 L 25.902344 8.339844 C 26.375 8.339844 26.789062 8.675781 26.878906 9.144531 L 27.550781 12.898438 C 27.5625 12.957031 27.546875 13.015625 27.507812 13.0625 C 27.46875 13.109375 27.414062 13.132812 27.355469 13.132812 Z M 20.402344 12.734375 L 27.117188 12.734375 L 26.488281 9.21875 C 26.433594 8.941406 26.1875 8.738281 25.902344 8.738281 L 21.617188 8.738281 C 21.335938 8.738281 21.085938 8.941406 21.03125 9.222656 Z M 20.402344 12.734375"/><path style="stroke:none;fill-rule:nonzero;fill:#1f212b;fill-opacity:1" d="M 28.554688 35.105469 L 18.964844 35.105469 C 17.535156 35.105469 16.371094 33.941406 16.371094 32.507812 L 16.371094 30.109375 C 16.371094 30 16.460938 29.910156 16.570312 29.910156 L 30.949219 29.910156 C 31.0625 29.910156 31.148438 30 31.148438 30.109375 L 31.148438 32.507812 C 31.148438 33.941406 29.984375 35.105469 28.554688 35.105469 Z M 16.769531 30.3125 L 16.769531 32.507812 C 16.769531 33.71875 17.753906 34.707031 18.964844 34.707031 L 28.554688 34.707031 C 29.765625 34.707031 30.75 33.71875 30.75 32.507812 L 30.75 30.3125 Z M 16.769531 30.3125"/><path style="stroke:none;fill-rule:nonzero;fill:#1f212b;fill-opacity:1" d="M 36.34375 28.714844 C 36.25 28.714844 36.160156 28.679688 36.089844 28.621094 C 35.996094 28.546875 35.945312 28.433594 35.945312 28.3125 L 35.945312 21.523438 C 35.945312 21.402344 35.996094 21.289062 36.089844 21.214844 C 36.179688 21.140625 36.304688 21.109375 36.417969 21.128906 L 39.476562 21.722656 C 40.222656 21.886719 40.738281 22.527344 40.738281 23.285156 L 40.738281 26.554688 C 40.738281 27.308594 40.222656 27.949219 39.484375 28.113281 L 36.417969 28.707031 C 36.394531 28.710938 36.367188 28.714844 36.34375 28.714844 Z M 36.742188 22.007812 L 36.742188 27.828125 L 39.324219 27.332031 C 39.679688 27.25 39.9375 26.929688 39.9375 26.554688 L 39.9375 23.28125 C 39.9375 22.90625 39.679688 22.585938 39.3125 22.503906 Z M 36.742188 22.007812"/><path style="stroke:none;fill-rule:nonzero;fill:#1f212b;fill-opacity:1" d="M 38.339844 14.132812 L 39.140625 14.132812 L 39.140625 21.921875 L 38.339844 21.921875 Z M 38.339844 14.132812"/><path style="stroke:none;fill-rule:nonzero;fill:#1f212b;fill-opacity:1" d="M 38.742188 14.332031 C 37.640625 14.332031 36.742188 13.4375 36.742188 12.335938 C 36.742188 11.234375 37.640625 10.335938 38.742188 10.335938 C 39.839844 10.335938 40.738281 11.234375 40.738281 12.335938 C 40.738281 13.4375 39.839844 14.332031 38.742188 14.332031 Z M 38.742188 10.738281 C 37.859375 10.738281 37.140625 11.453125 37.140625 12.335938 C 37.140625 13.214844 37.859375 13.933594 38.742188 13.933594 C 39.621094 13.933594 40.339844 13.214844 40.339844 12.335938 C 40.339844 11.453125 39.621094 10.738281 38.742188 10.738281 Z M 38.742188 10.738281"/><path style="stroke:none;fill-rule:nonzero;fill:#1f212b;fill-opacity:1" d="M 11.175781 28.714844 C 11.152344 28.714844 11.125 28.710938 11.101562 28.707031 L 8.046875 28.117188 C 7.296875 27.949219 6.78125 27.308594 6.78125 26.554688 L 6.78125 23.28125 C 6.78125 22.527344 7.296875 21.886719 8.035156 21.722656 L 11.101562 21.128906 C 11.21875 21.105469 11.339844 21.136719 11.429688 21.214844 C 11.523438 21.289062 11.574219 21.402344 11.574219 21.523438 L 11.574219 28.3125 C 11.574219 28.433594 11.523438 28.546875 11.429688 28.621094 C 11.359375 28.679688 11.269531 28.714844 11.175781 28.714844 Z M 10.777344 22.007812 L 8.195312 22.503906 C 7.839844 22.585938 7.582031 22.90625 7.582031 23.28125 L 7.582031 26.554688 C 7.582031 26.929688 7.839844 27.25 8.207031 27.332031 L 10.777344 27.828125 Z M 10.777344 22.007812"/><path style="stroke:none;fill-rule:nonzero;fill:#1f212b;fill-opacity:1" d="M 8.378906 14.132812 L 9.179688 14.132812 L 9.179688 21.921875 L 8.378906 21.921875 Z M 8.378906 14.132812"/><path style="stroke:none;fill-rule:nonzero;fill:#1f212b;fill-opacity:1" d="M 8.78125 14.332031 C 7.679688 14.332031 6.78125 13.4375 6.78125 12.335938 C 6.78125 11.234375 7.679688 10.335938 8.78125 10.335938 C 9.882812 10.335938 10.777344 11.234375 10.777344 12.335938 C 10.777344 13.4375 9.882812 14.332031 8.78125 14.332031 Z M 8.78125 10.738281 C 7.898438 10.738281 7.183594 11.453125 7.183594 12.335938 C 7.183594 13.214844 7.898438 13.933594 8.78125 13.933594 C 9.660156 13.933594 10.378906 13.214844 10.378906 12.335938 C 10.378906 11.453125 9.660156 10.738281 8.78125 10.738281 Z M 8.78125 10.738281"/><path style="stroke:none;fill-rule:nonzero;fill:#1f212b;fill-opacity:1" d="M 23.761719 33.507812 C 23.648438 33.507812 23.558594 33.417969 23.558594 33.308594 L 23.558594 30.109375 C 23.558594 30 23.648438 29.910156 23.761719 29.910156 C 23.871094 29.910156 23.960938 30 23.960938 30.109375 L 23.960938 33.308594 C 23.960938 33.417969 23.871094 33.507812 23.761719 33.507812 Z M 23.761719 33.507812"/><path style="stroke:none;fill-rule:nonzero;fill:#1f212b;fill-opacity:1" d="M 26.15625 31.507812 C 26.046875 31.507812 25.957031 31.421875 25.957031 31.308594 L 25.957031 30.109375 C 25.957031 30 26.046875 29.910156 26.15625 29.910156 C 26.265625 29.910156 26.355469 30 26.355469 30.109375 L 26.355469 31.308594 C 26.355469 31.421875 26.265625 31.507812 26.15625 31.507812 Z M 26.15625 31.507812"/><path style="stroke:none;fill-rule:nonzero;fill:#1f212b;fill-opacity:1" d="M 21.363281 35.105469 C 21.253906 35.105469 21.164062 35.015625 21.164062 34.90625 L 21.164062 30.109375 C 21.164062 30 21.253906 29.910156 21.363281 29.910156 C 21.472656 29.910156 21.5625 30 21.5625 30.109375 L 21.5625 34.90625 C 21.5625 35.015625 21.472656 35.105469 21.363281 35.105469 Z M 21.363281 35.105469"/><path style="stroke:none;fill-rule:nonzero;fill:#1f212b;fill-opacity:1" d="M 18.964844 31.910156 C 18.855469 31.910156 18.765625 31.820312 18.765625 31.710938 L 18.765625 30.109375 C 18.765625 30 18.855469 29.910156 18.964844 29.910156 C 19.078125 29.910156 19.167969 30 19.167969 30.109375 L 19.167969 31.710938 C 19.167969 31.820312 19.078125 31.910156 18.964844 31.910156 Z M 18.964844 31.910156"/><path style="stroke:none;fill-rule:nonzero;fill:#1f212b;fill-opacity:1" d="M 28.554688 35.105469 C 28.445312 35.105469 28.355469 35.015625 28.355469 34.90625 L 28.355469 30.109375 C 28.355469 30 28.445312 29.910156 28.554688 29.910156 C 28.664062 29.910156 28.753906 30 28.753906 30.109375 L 28.753906 34.90625 C 28.753906 35.015625 28.664062 35.105469 28.554688 35.105469 Z M 28.554688 35.105469"/><path style="stroke:none;fill-rule:nonzero;fill:#1f212b;fill-opacity:1" d="M 18.964844 35.105469 C 18.855469 35.105469 18.765625 35.015625 18.765625 34.90625 L 18.765625 32.507812 C 18.765625 32.398438 18.855469 32.308594 18.964844 32.308594 C 19.078125 32.308594 19.167969 32.398438 19.167969 32.507812 L 19.167969 34.90625 C 19.167969 35.015625 19.078125 35.105469 18.964844 35.105469 Z M 18.964844 35.105469"/><path style="stroke:none;fill-rule:nonzero;fill:#1f212b;fill-opacity:1" d="M 23.761719 35.105469 C 23.648438 35.105469 23.558594 35.015625 23.558594 34.90625 L 23.558594 34.105469 C 23.558594 33.996094 23.648438 33.90625 23.761719 33.90625 C 23.871094 33.90625 23.960938 33.996094 23.960938 34.105469 L 23.960938 34.90625 C 23.960938 35.015625 23.871094 35.105469 23.761719 35.105469 Z M 23.761719 35.105469"/><path style="stroke:none;fill-rule:nonzero;fill:#1f212b;fill-opacity:1" d="M 26.15625 35.105469 C 26.046875 35.105469 25.957031 35.015625 25.957031 34.90625 L 25.957031 32.109375 C 25.957031 32 26.046875 31.910156 26.15625 31.910156 C 26.265625 31.910156 26.355469 32 26.355469 32.109375 L 26.355469 34.90625 C 26.355469 35.015625 26.265625 35.105469 26.15625 35.105469 Z M 26.15625 35.105469"/></g></svg>