<?xml version="1.0" encoding="UTF-8"?>
<svg xmlns="http://www.w3.org/2000/svg" xmlns:xlink="http://www.w3.org/1999/xlink" width="48pt" height="48pt" viewBox="0 0 48 48" version="1.1">
<g id="surface20901">
<path style=" stroke:none;fill-rule:nonzero;fill:rgb(25.882353%,51.764706%,96.862745%);fill-opacity:1;" d="M 0 24 C 0 10.746094 10.746094 0 24 0 C 37.253906 0 48 10.746094 48 24 C 48 37.253906 37.253906 48 24 48 C 10.746094 48 0 37.253906 0 24 Z M 24 47.039062 C 36.726562 47.039062 47.039062 36.726562 47.039062 24 C 47.039062 11.273438 36.726562 0.960938 24 0.960938 C 11.273438 0.960938 0.960938 11.273438 0.960938 24 C 0.960938 36.726562 11.273438 47.039062 24 47.039062 Z M 24 47.039062 "/>
<path style=" stroke:none;fill-rule:nonzero;fill:rgb(0.784314%,46.666667%,74.117647%);fill-opacity:1;" d="M 24.0625 4.429688 C 22.460938 4.433594 21.347656 4.578125 20.007812 4.808594 C 16.042969 5.5 15.320312 6.949219 15.320312 9.617188 L 15.320312 13.699219 L 24.59375 13.699219 L 24.59375 15.761719 L 10.488281 15.761719 C 7.773438 15.761719 5.398438 17.039062 4.644531 20.105469 C 3.792969 23.625 3.757812 25.828125 4.644531 29.503906 C 5.320312 32.246094 6.804688 34.300781 9.523438 34.300781 L 13.261719 34.300781 L 13.261719 29.042969 C 13.261719 25.988281 16.03125 22.96875 19.199219 22.96875 L 26.652344 22.96875 C 29.25 22.96875 31.804688 21.050781 31.804688 18.460938 L 31.804688 9.617188 C 31.804688 7.105469 29.992188 5.226562 27.457031 4.804688 C 27.519531 4.800781 25.648438 4.421875 24.0625 4.429688 Z M 18.929688 8.550781 C 19.773438 8.550781 20.472656 9.246094 20.472656 10.097656 C 20.472656 10.953125 19.773438 11.640625 18.929688 11.640625 C 18.066406 11.640625 17.382812 10.957031 17.382812 10.097656 C 17.382812 9.25 18.066406 8.550781 18.929688 8.550781 Z M 18.929688 8.550781 "/>
<path style=" stroke:none;fill-rule:nonzero;fill:rgb(100%,75.686275%,2.745098%);fill-opacity:1;" d="M 23.0625 43.570312 C 24.664062 43.566406 25.777344 43.421875 27.117188 43.191406 C 31.082031 42.5 31.804688 41.050781 31.804688 38.382812 L 31.804688 34.300781 L 22.53125 34.300781 L 22.53125 32.238281 L 36.636719 32.238281 C 39.351562 32.238281 41.726562 30.960938 42.480469 27.894531 C 43.332031 24.375 43.371094 22.171875 42.480469 18.496094 C 41.804688 15.753906 40.320312 13.699219 37.601562 13.699219 L 33.863281 13.699219 L 33.863281 18.957031 C 33.863281 22.011719 31.09375 25.03125 27.925781 25.03125 L 20.472656 25.03125 C 17.875 25.03125 15.320312 26.949219 15.320312 29.539062 L 15.320312 38.382812 C 15.320312 40.894531 17.132812 42.773438 19.667969 43.195312 C 19.605469 43.199219 21.476562 43.578125 23.0625 43.570312 Z M 28.199219 39.449219 C 27.351562 39.449219 26.652344 38.753906 26.652344 37.902344 C 26.652344 37.046875 27.351562 36.359375 28.199219 36.359375 C 29.058594 36.359375 29.742188 37.042969 29.742188 37.902344 C 29.742188 38.75 29.058594 39.449219 28.199219 39.449219 Z M 28.199219 39.449219 "/>
</g>
</svg>
