<svg xmlns="http://www.w3.org/2000/svg" xmlns:xlink="http://www.w3.org/1999/xlink" width="64" height="64" version="1.1" viewBox="0 0 48 48"><g id="surface51930"><path style="stroke:none;fill-rule:nonzero;fill:#222;fill-opacity:1" d="M 24 48 C 10.746094 48 0 37.253906 0 24 C 0 10.746094 10.746094 0 24 0 C 37.253906 0 48 10.746094 48 24 C 48 37.253906 37.253906 48 24 48 Z M 24 48"/><path style="stroke:none;fill-rule:nonzero;fill:#61dafb;fill-opacity:1" d="M 32.972656 4.265625 C 32.238281 4.242188 31.472656 4.371094 30.703125 4.617188 C 29.167969 5.117188 27.558594 6.085938 25.90625 7.433594 C 25.257812 7.957031 24.605469 8.5625 23.949219 9.199219 C 23.308594 8.578125 22.667969 7.988281 22.035156 7.472656 C 20.382812 6.132812 18.777344 5.160156 17.242188 4.664062 C 15.710938 4.167969 14.183594 4.152344 12.933594 4.875 C 11.679688 5.597656 10.929688 6.925781 10.59375 8.503906 C 10.257812 10.078125 10.292969 11.957031 10.628906 14.058594 C 10.746094 14.789062 10.917969 15.554688 11.109375 16.332031 C 10.390625 16.550781 9.695312 16.777344 9.050781 17.03125 C 7.105469 17.789062 5.496094 18.699219 4.324219 19.78125 C 3.152344 20.863281 2.394531 22.175781 2.394531 23.617188 C 2.394531 25.058594 3.152344 26.371094 4.324219 27.453125 C 5.496094 28.535156 7.105469 29.445312 9.050781 30.207031 C 9.742188 30.476562 10.488281 30.71875 11.257812 30.945312 C 10.980469 31.980469 10.757812 32.988281 10.601562 33.941406 C 10.265625 36.042969 10.230469 37.921875 10.566406 39.5 C 10.902344 41.078125 11.652344 42.414062 12.910156 43.140625 C 14.171875 43.871094 15.703125 43.851562 17.238281 43.351562 C 18.777344 42.855469 20.386719 41.886719 22.039062 40.542969 C 22.679688 40.019531 23.328125 39.425781 23.976562 38.792969 C 24.628906 39.429688 25.28125 40.027344 25.925781 40.550781 C 27.578125 41.894531 29.1875 42.863281 30.71875 43.359375 C 32.253906 43.859375 33.777344 43.871094 35.027344 43.148438 C 36.28125 42.425781 37.03125 41.097656 37.367188 39.523438 C 37.703125 37.945312 37.667969 36.070312 37.328125 33.96875 C 37.175781 33.011719 36.949219 32.003906 36.671875 30.96875 C 37.46875 30.730469 38.238281 30.484375 38.949219 30.207031 C 40.894531 29.445312 42.503906 28.535156 43.675781 27.453125 C 44.847656 26.371094 45.605469 25.058594 45.605469 23.617188 C 45.605469 22.175781 44.847656 20.863281 43.675781 19.78125 C 42.503906 18.699219 40.894531 17.789062 38.949219 17.03125 C 38.292969 16.777344 37.589844 16.542969 36.863281 16.324219 C 37.054688 15.539062 37.222656 14.769531 37.34375 14.035156 C 37.679688 11.929688 37.714844 10.050781 37.378906 8.472656 C 37.042969 6.890625 36.289062 5.558594 35.03125 4.832031 C 34.402344 4.46875 33.703125 4.292969 32.972656 4.265625 Z M 32.886719 6.175781 C 33.34375 6.191406 33.738281 6.300781 34.070312 6.492188 C 34.742188 6.878906 35.238281 7.632812 35.503906 8.875 C 35.765625 10.113281 35.757812 11.789062 35.445312 13.730469 C 35.339844 14.398438 35.183594 15.101562 35.007812 15.824219 C 33.085938 15.363281 30.984375 15.019531 28.742188 14.816406 C 27.613281 13.257812 26.457031 11.835938 25.289062 10.574219 C 25.90625 9.972656 26.519531 9.410156 27.117188 8.921875 C 28.644531 7.679688 30.089844 6.835938 31.296875 6.445312 C 31.898438 6.25 32.425781 6.164062 32.886719 6.175781 Z M 15.066406 6.183594 C 15.527344 6.171875 16.058594 6.253906 16.664062 6.449219 C 17.871094 6.84375 19.320312 7.6875 20.847656 8.929688 C 21.433594 9.40625 22.035156 9.957031 22.636719 10.546875 C 21.460938 11.816406 20.296875 13.253906 19.160156 14.828125 C 16.925781 15.03125 14.832031 15.378906 12.917969 15.84375 C 12.746094 15.125 12.589844 14.421875 12.484375 13.757812 C 12.171875 11.816406 12.164062 10.136719 12.429688 8.894531 C 12.695312 7.648438 13.195312 6.894531 13.871094 6.503906 C 14.210938 6.308594 14.605469 6.195312 15.066406 6.183594 Z M 23.976562 11.925781 C 24.742188 12.757812 25.507812 13.671875 26.265625 14.652344 C 25.519531 14.621094 24.765625 14.601562 24 14.601562 C 23.21875 14.601562 22.449219 14.621094 21.6875 14.652344 C 22.449219 13.671875 23.214844 12.761719 23.976562 11.925781 Z M 24 16.496094 C 25.277344 16.496094 26.519531 16.550781 27.730469 16.636719 C 28.566406 17.835938 29.378906 19.105469 30.15625 20.449219 C 30.835938 21.628906 31.453125 22.804688 32.015625 23.96875 C 31.445312 25.148438 30.820312 26.34375 30.128906 27.542969 C 29.519531 28.59375 28.886719 29.59375 28.238281 30.558594 C 26.871094 30.675781 25.457031 30.738281 24 30.738281 C 22.507812 30.738281 21.058594 30.671875 19.664062 30.550781 C 19.027344 29.601562 18.402344 28.613281 17.804688 27.574219 C 17.117188 26.382812 16.492188 25.191406 15.925781 24.015625 C 16.492188 22.832031 17.121094 21.632812 17.8125 20.429688 C 18.585938 19.09375 19.398438 17.832031 20.226562 16.640625 C 21.449219 16.550781 22.707031 16.496094 24 16.496094 Z M 30.152344 16.875 C 31.699219 17.066406 33.152344 17.335938 34.503906 17.65625 C 34.101562 18.972656 33.605469 20.347656 33.007812 21.765625 C 32.621094 21.015625 32.214844 20.261719 31.78125 19.507812 C 31.253906 18.59375 30.707031 17.722656 30.152344 16.875 Z M 17.75 16.886719 C 17.207031 17.722656 16.671875 18.578125 16.15625 19.472656 C 15.714844 20.234375 15.300781 20.996094 14.910156 21.757812 C 14.316406 20.347656 13.824219 18.980469 13.425781 17.671875 C 14.769531 17.351562 16.214844 17.082031 17.75 16.886719 Z M 36.359375 18.15625 C 37.027344 18.355469 37.667969 18.566406 38.257812 18.796875 C 40.050781 19.496094 41.472656 20.328125 42.390625 21.175781 C 43.308594 22.023438 43.710938 22.832031 43.710938 23.617188 C 43.710938 24.402344 43.308594 25.210938 42.390625 26.0625 C 41.472656 26.910156 40.050781 27.738281 38.257812 28.441406 C 37.605469 28.695312 36.882812 28.925781 36.136719 29.148438 C 35.601562 27.496094 34.917969 25.773438 34.109375 24.015625 C 35.042969 21.996094 35.792969 20.027344 36.359375 18.15625 Z M 11.609375 18.164062 C 12.167969 20.015625 12.910156 21.964844 13.832031 23.964844 C 13.015625 25.734375 12.328125 27.464844 11.792969 29.128906 C 11.070312 28.914062 10.375 28.6875 9.742188 28.441406 C 7.949219 27.738281 6.527344 26.910156 5.609375 26.0625 C 4.691406 25.210938 4.289062 24.402344 4.289062 23.617188 C 4.289062 22.832031 4.691406 22.023438 5.609375 21.175781 C 6.527344 20.328125 7.949219 19.496094 9.742188 18.796875 C 10.320312 18.570312 10.953125 18.363281 11.609375 18.164062 Z M 24 19.304688 C 21.417969 19.304688 19.304688 21.417969 19.304688 24 C 19.304688 26.582031 21.417969 28.695312 24 28.695312 C 26.582031 28.695312 28.695312 26.582031 28.695312 24 C 28.695312 21.417969 26.582031 19.304688 24 19.304688 Z M 24 21.183594 C 25.566406 21.183594 26.816406 22.433594 26.816406 24 C 26.816406 25.566406 25.566406 26.816406 24 26.816406 C 22.433594 26.816406 21.183594 25.566406 21.183594 24 C 21.183594 22.433594 22.433594 21.183594 24 21.183594 Z M 33.03125 26.21875 C 33.523438 27.382812 33.953125 28.523438 34.3125 29.625 C 33.183594 29.886719 31.980469 30.105469 30.714844 30.28125 C 31.078125 29.699219 31.4375 29.109375 31.789062 28.5 C 32.230469 27.738281 32.640625 26.976562 33.03125 26.21875 Z M 14.929688 26.21875 C 15.324219 26.984375 15.738281 27.746094 16.179688 28.515625 C 16.527344 29.117188 16.878906 29.703125 17.238281 30.277344 C 15.980469 30.101562 14.78125 29.878906 13.65625 29.617188 C 14.011719 28.519531 14.441406 27.382812 14.929688 26.21875 Z M 13.113281 31.441406 C 14.8125 31.84375 16.65625 32.152344 18.609375 32.351562 C 19.914062 34.238281 21.269531 35.933594 22.636719 37.414062 C 22.027344 38.011719 21.421875 38.570312 20.828125 39.050781 C 19.300781 40.292969 17.855469 41.136719 16.648438 41.527344 C 15.441406 41.917969 14.542969 41.867188 13.871094 41.480469 C 13.199219 41.09375 12.707031 40.339844 12.441406 39.101562 C 12.179688 37.859375 12.183594 36.1875 12.496094 34.242188 C 12.640625 33.363281 12.851562 32.417969 13.113281 31.441406 Z M 34.855469 31.449219 C 35.121094 32.433594 35.332031 33.378906 35.476562 34.265625 C 35.789062 36.210938 35.796875 37.886719 35.53125 39.128906 C 35.265625 40.375 34.765625 41.132812 34.089844 41.523438 C 33.414062 41.914062 32.507812 41.964844 31.296875 41.574219 C 30.085938 41.183594 28.640625 40.335938 27.113281 39.09375 C 26.515625 38.605469 25.90625 38.046875 25.289062 37.445312 C 26.664062 35.957031 28.035156 34.253906 29.347656 32.355469 C 31.304688 32.15625 33.152344 31.847656 34.855469 31.449219 Z M 21.058594 32.546875 C 22.023438 32.597656 23 32.632812 24 32.632812 C 24.96875 32.632812 25.914062 32.601562 26.847656 32.550781 C 25.890625 33.839844 24.917969 35.007812 23.949219 36.0625 C 22.980469 35.007812 22.011719 33.835938 21.058594 32.546875 Z M 21.058594 32.546875"/></g></svg>