<svg xmlns="http://www.w3.org/2000/svg" viewBox="0 519 3000 300" width="3000" height="300"><defs><style>.a{clip-path:url(#b);}.b,.c{fill:#fff;}.b{opacity:0.3;}</style><clipPath id="b"><path d="M0 519h3000v300H0z"/></clipPath></defs><g id="a" class="a"><path class="b" d="M2828.6 749.8H2641a99.3 99.3 0 0 1 93.8-66.8 99.3 99.3 0 0 1 93.8 66.8zm-383 0H2248c-.2-3.2-.4-6.4-.4-9.6a99.3 99.3 0 0 1 99.2-99.2 99.3 99.3 0 0 1 99.2 99.2c0 3.2-.2 6.4-.5 9.6zm-1699.2 0H554a99 99 0 0 1-2-19.6 98.3 98.3 0 0 1 98.2-98.2 98.3 98.3 0 0 1 98.2 98.2 99 99 0 0 1-2 19.6zm-378 0H177.2a99.4 99.4 0 0 1 95.6-72.8 99.4 99.4 0 0 1 95.6 72.8zM1881 643.4a66.8 66.8 0 0 1 22.7-40.6 66.8 66.8 0 0 1 43-16 67.5 67.5 0 0 1 10.5 1 66.4 66.4 0 0 1 36.3 18 72 72 0 0 1 29.5-6.2c39.8 0 72.2 32.2 72.2 71.7s-217-10.2-214.3-28zM1030 651a65 65 0 0 1 65-65 65.5 65.5 0 0 1 13 1.3 82.8 82.8 0 0 1 58.6-24.5 83.3 83.3 0 0 1 12.7 1 81.6 81.6 0 0 1 46.5 24 76.2 76.2 0 0 1 64.4-36 76.6 76.6 0 0 1 11.7 1 75.2 75.2 0 0 1 49.6 30.2c12 16.3-321.4 103.8-321.4 68z"/><path class="c" d="M3000 749.8V819H0V705a124.6 124.6 0 0 1 73.7-24 125.2 125.2 0 0 1 66.3 19 80.7 80.7 0 0 1 49.7-17 81 81 0 0 1 64.7 32 49 49 0 0 1 16.8-3 48.6 48.6 0 0 1 29.4 9.8 49 49 0 0 1 46.6-33.8 48.7 48.7 0 0 1 28.3 9 81.8 81.8 0 0 1 66.2-34 81.2 81.2 0 0 1 43.7 12.7 125.4 125.4 0 0 1 82.3-30.7 125.3 125.3 0 0 1 65 18.2 48.8 48.8 0 0 1 17.5-3.2 49 49 0 0 1 24.6 6.6 125.6 125.6 0 0 1 81-29.6 124.8 124.8 0 0 1 46.2 8.8 111.3 111.3 0 0 1 79.2-32.8 112 112 0 0 1 56.8 15.4 61.5 61.5 0 0 1 40.7-15.4 61.5 61.5 0 0 1 40 14.8 80.8 80.8 0 0 1 35-7.8 81 81 0 0 1 31 6 48.8 48.8 0 0 1 41.5-23 49 49 0 0 1 31.4 11.4 112.3 112.3 0 0 1 82.6-36.4 111.3 111.3 0 0 1 64 20 66.2 66.2 0 0 1 59.5-37 66.2 66.2 0 0 1 23.7 4.3 126.4 126.4 0 0 1 97.8-46.3 127.8 127.8 0 0 1 15.4 1 126.6 126.6 0 0 1 78 40 60.6 60.6 0 0 1 44-18.7 61 61 0 0 1 7.2.4 60 60 0 0 1 18 5 94.5 94.5 0 0 1 56.6-18.4 101.3 101.3 0 0 1 12.2.7c24.7 3 46.7 14.7 62 32.8a146.7 146.7 0 0 1 28.6-2.8 144.5 144.5 0 0 1 129.3 79.3 81.8 81.8 0 0 1 49.2-16.3 82 82 0 0 1 47.2 14.8 82.4 82.4 0 0 1 29.7 38A83.4 83.4 0 0 1 2133 637a84.4 84.4 0 0 1 44.4 12.4 109.8 109.8 0 0 1 50.8-12.4 109 109 0 0 1 87.5 43.7 50.5 50.5 0 0 1 41-20.7 50.8 50.8 0 0 1 17.7 3.2A130.2 130.2 0 0 1 2441 645a130 130 0 0 1 84 30.7 84.5 84.5 0 0 1 44.7-12.7 84.2 84.2 0 0 1 67.7 34 50.6 50.6 0 0 1 29-9 50 50 0 0 1 47.6 33.8 50.4 50.4 0 0 1 30-9.8 51 51 0 0 1 17.2 3 83.4 83.4 0 0 1 66-32 83.7 83.7 0 0 1 51 17 130 130 0 0 1 67.7-19 130 130 0 0 1 54 11.6z"/></g></svg>